<svg t="1690459842021" class="icon" viewBox="0 0 1024 1024" version="1.1" xmlns="http://www.w3.org/2000/svg" p-id="1119" width="200" height="200"><path d="M88.8832 88.1152m236.032 0l372.2752 0q236.032 0 236.032 236.032l0 372.2752q0 236.032-236.032 236.032l-372.2752 0q-236.032 0-236.032-236.032l0-372.2752q0-236.032 236.032-236.032Z" fill="#FF6155" p-id="1120"></path><path d="M302.08 322.1504a366.0288 366.0288 0 0 0-213.1968 68.2496V696.32a236.032 236.032 0 0 0 236.032 236.032h253.952A367.872 367.872 0 0 0 302.08 322.1504z" fill="#FC7C71" p-id="1121"></path><path d="M518.9632 320.1536v417.6896h264.704V480.768a38.144 38.144 0 0 0-20.48-33.792z m167.0656 373.76H618.496V626.176H686.08zM686.08 568.32h-67.584V500.5824H686.08z" fill="#FDC1BC" p-id="1122"></path><path d="M793.6 719.2576h-256.4096v-481.28a42.4448 42.4448 0 0 0-61.44-37.7856L262.912 308.8384a42.4448 42.4448 0 0 0-23.0912 37.7856v372.6336H230.4A37.2224 37.2224 0 1 0 230.4 793.6h563.2a37.2224 37.2224 0 1 0 0-74.4448zM435.456 542.72H337.4592a30.72 30.72 0 0 1 0-61.44h97.9968a30.72 30.72 0 1 1 0 61.44z m0-101.7856H337.4592a30.72 30.72 0 0 1 0-61.44h97.9968a30.72 30.72 0 1 1 0 61.44z" fill="#FFFFFF" p-id="1123"></path></svg>